<svg width="64" height="64" viewBox="0 0 64 64" fill="none" xmlns="http://www.w3.org/2000/svg">
  <rect x="6" y="6" width="52" height="52" rx="14" fill="#FFFFFF"/>
  <path d="M42.5 22.5C44.9853 22.5 47 20.4853 47 18C47 15.5147 44.9853 13.5 42.5 13.5C40.0147 13.5 38 15.5147 38 18C38 18.5152 38.0858 19.0104 38.2442 19.4718L27.6924 25.4018C26.8692 24.5234 25.7005 24 24.4 24C21.9147 24 19.9 26.0147 19.9 28.5C19.9 30.9853 21.9147 33 24.4 33C25.7005 33 26.8692 32.4766 27.6924 31.5982L38.2442 37.5282C38.0858 37.9896 38 38.4848 38 39C38 41.4853 40.0147 43.5 42.5 43.5C44.9853 43.5 47 41.4853 47 39C47 36.5147 44.9853 34.5 42.5 34.5C41.1995 34.5 40.0308 35.0234 39.2076 35.9018L28.6558 29.9718C28.8142 29.5104 28.9 29.0152 28.9 28.5C28.9 27.9848 28.8142 27.4896 28.6558 27.0282L39.2076 21.0982C40.0308 21.9766 41.1995 22.5 42.5 22.5Z" fill="#2F6BFF"/>
  <circle cx="42.5" cy="18" r="3.5" fill="#FF4D4D"/>
  <circle cx="24.4" cy="28.5" r="3.5" fill="#34C759"/>
  <circle cx="42.5" cy="39" r="3.5" fill="#FFB020"/>
</svg>
